<!DOCTYPE svg PUBLIC "-//W3C//DTD SVG 20010904//EN" "http://www.w3.org/TR/2001/REC-SVG-20010904/DTD/svg10.dtd">
<svg version="1.0" xmlns="http://www.w3.org/2000/svg" width="225px" height="225px" viewBox="0 0 2250 2250" preserveAspectRatio="xMidYMid meet">
<g id="layer101" fill="#050505" stroke="none">
 <path d="M589 1951 c-24 -19 -24 -23 -27 -225 l-3 -206 -91 0 -91 0 56 59 c63 66 73 105 37 141 -42 42 -65 29 -202 -108 -105 -105 -128 -133 -128 -157 0 -23 23 -51 123 -151 68 -69 133 -126 147 -129 37 -9 80 27 80 66 0 22 -13 44 -50 83 -27 29 -50 56 -50 59 0 4 38 7 85 7 l84 0 3 -536 3 -536 24 -19 c22 -18 46 -19 536 -19 490 0 514 1 536 19 24 19 24 23 27 225 l3 206 85 0 c46 0 84 -3 84 -7 0 -3 -23 -30 -50 -59 -37 -39 -50 -61 -50 -83 0 -39 43 -75 80 -66 14 3 79 60 148 129 99 100 122 128 122 151 0 24 -23 52 -128 157 -117 117 -131 128 -164 128 -27 0 -41 -6 -52 -22 -28 -39 -19 -66 39 -127 30 -32 55 -61 55 -64 0 -4 -38 -7 -85 -7 l-84 0 -3 536 -3 536 -24 19 c-22 18 -46 19 -536 19 -490 0 -514 -1 -536 -19z m959 -603 l-3 -483 -120 -3 c-133 -3 -155 -12 -155 -65 0 -59 19 -67 157 -67 l123 0 0 -155 0 -155 -425 0 -425 0 2 483 3 482 120 3 c133 3 155 12 155 65 0 59 -19 67 -157 67 l-123 0 0 155 0 155 425 0 425 0 -2 -482z"/>
 </g>
<g id="layer102" fill="#fdfdfd" stroke="none">
 <path d="M0 1125 l0 -1125 1125 0 1125 0 0 1125 0 1125 -1125 0 -1125 0 0 -1125z m1661 826 l24 -19 3 -536 3 -536 84 0 c47 0 85 3 85 7 0 3 -25 32 -55 64 -58 61 -67 88 -39 127 11 16 25 22 52 22 33 0 47 -11 164 -128 105 -105 128 -133 128 -157 0 -23 -23 -51 -122 -151 -69 -69 -134 -126 -148 -129 -37 -9 -80 27 -80 66 0 22 13 44 50 83 27 29 50 56 50 59 0 4 -38 7 -84 7 l-85 0 -3 -206 c-3 -202 -3 -206 -27 -225 -22 -18 -46 -19 -536 -19 -490 0 -514 1 -536 19 l-24 19 -3 536 -3 536 -84 0 c-47 0 -85 -3 -85 -7 0 -3 23 -30 50 -59 37 -39 50 -61 50 -83 0 -39 -43 -75 -80 -66 -14 3 -79 60 -147 129 -100 100 -123 128 -123 151 0 24 23 52 128 157 137 137 160 150 202 108 36 -36 26 -75 -37 -141 l-56 -59 91 0 91 0 3 206 c3 202 3 206 27 225 22 18 46 19 536 19 490 0 514 -1 536 -19z"/>
 <path d="M700 1675 l0 -155 123 0 c138 0 157 -8 157 -67 0 -53 -22 -62 -155 -65 l-120 -3 -3 -482 -2 -483 425 0 425 0 0 155 0 155 -123 0 c-138 0 -157 8 -157 67 0 53 22 62 155 65 l120 3 3 483 2 482 -425 0 -425 0 0 -155z"/>
 </g>

</svg>